<?xml version="1.0" encoding="UTF-8" standalone="no"?>
<svg
   viewBox="0 0 62.825493 72.310318"
   version="1.1"
   id="svg1"
   xml:space="preserve"
   xmlns:sodipodi="http://sodipodi.sourceforge.net/DTD/sodipodi-0.dtd"
   xmlns="http://www.w3.org/2000/svg"
   xmlns:svg="http://www.w3.org/2000/svg">
   <defs
   id="defs1">
   <rect
   x="69.749178"
   y="132.81207"
   width="99.116215"
   height="49.553046"
   id="rect3" /><rect
   x="351.89099"
   y="553.41492"
   width="95.660591"
   height="53.558212"
   id="rect2" /></defs><g
   id="layer2"
   transform="translate(-73.910654,-112.3442)">
   <path
     style="display:inline;fill:none;stroke:#000000"
     d="m 74.430816,166.35813 c -0.0067,-11.91147 -0.01333,-23.82294 -0.02,-35.73441 10.314564,-5.90321 20.56222,-11.92488 30.903814,-17.77953 10.33924,5.85784 20.59802,11.86151 30.89692,17.79171 0.008,11.90268 0.0163,23.80536 0.0244,35.70804 -10.31662,5.91838 -20.58462,11.92457 -30.9188,17.81027 -0.81318,-0.44523 -4.67789,-2.65586 -30.886334,-17.79608 z m 50.088534,-4.28768 H 86.119804 l 19.203596,19.91628 z m -40.420409,-0.0434 -7.076223,3.98638 22.667292,13.08863 z m 49.536889,3.9968 -7.08908,-3.98732 -15.62785,17.09288 z m 1.12141,-32.23136 -7.51274,26.95307 7.39939,3.8431 z m -58.820824,30.95674 -0.0374,-28.63551 7.620318,24.62244 -7.582922,4.01307 z m 49.287774,-4.31153 -19.93265,-36.11922 -19.951111,36.25098 z m -40.825866,-1.25794 -7.708093,-27.21579 27.281329,-8.20052 z M 133.78245,132.0035 c -8.9876,-2.73603 -17.99888,-5.39804 -26.99572,-8.1054 6.48748,11.67584 12.8593,23.41866 19.33842,35.09935 2.59528,-8.98437 5.19101,-17.97248 7.6573,-26.99395 z m -29.21111,-9.85431 -0.003,-7.07957 -26.62255,15.09727 z m 26.83135,7.49357 -25.33562,-14.57315 -0.0202,7.08839 z"
     id="path1"
     />
     <text
     xml:space="preserve"
     transform="matrix(0.26458333,0,0,0.26458333,73.910654,112.3442)"
     id="text3"
     style="font-style:normal;font-weight:900;font-size:40px;line-height:1.25;font-family:Arial;text-align:center;white-space:pre;shape-inside:url(#rect3);fill:#000000;fill-opacity:1;stroke:none;font-stretch:normal;font-variant:normal;font-variant-ligatures:normal;font-variant-caps:normal;font-variant-numeric:normal;font-variant-east-asian:normal"
     x="34.111328"
     y="0" ><tspan
         x="100"
         y="175"
         id="tspan1"></tspan></text></g></svg>
